<?xml version="1.0" encoding="utf-8"?>
<!-- Generator: Adobe Illustrator 23.0.3, SVG Export Plug-In . SVG Version: 6.00 Build 0)  -->
<svg version="1.1" id="Capa_1" xmlns="http://www.w3.org/2000/svg" xmlns:xlink="http://www.w3.org/1999/xlink" x="0px" y="0px"
	 viewBox="0 0 512 512" style="enable-background:new 0 0 512 512;" xml:space="preserve">
<style type="text/css">
	.st0{fill:#FFFFFF;}
	.st1{fill:#FFFDD0;}
	.st2{fill:#DCDDDE;}
</style>
<path class="st0" d="M256,0C114.6,0,0,114.6,0,256s114.6,256,256,256s256-114.6,256-256S397.4,0,256,0z M430.5,312.1
	c0,96.4-78.1,130-174.5,130s-174.5-33.6-174.5-130c0-40.6,13.9-81.6,37.1-115.5c-6.1-6.4-9.9-15-9.9-24.6
	c0-19.6,15.9-35.5,35.5-35.5c9.3,0,17.7,3.6,24.1,9.4c25.8-18,55.7-28.9,87.7-28.9c21.6,0,42.4,5,61.5,13.8
	c11.9-14.5,30-23.8,50.3-23.8c35.9,0,65,29.1,65,65c0,20.4-9.4,38.6-24.1,50.5C422.6,250.4,430.5,281.4,430.5,312.1z"/>
<path class="st1" d="M509.9,223l-90.5-90.5l0,0c8.4,10.9,13.3,24.6,13.3,39.4c0,20.4-9.4,38.6-24.1,50.5
	c13.9,27.9,21.9,58.9,21.9,89.6c0,96.4-78.1,130-174.5,130c-54.5,0-103.1-10.7-135.1-37.5l105.7,105.7c9.7,1.1,19.5,1.7,29.4,1.7
	c141.4,0,256-114.6,256-256C512,244.8,511.3,233.8,509.9,223z"/>
<path class="st2" d="M512,256L512,256L512,256z"/>
<path class="st1" d="M103.3,222.5c4.5-9,9.6-17.7,15.3-26c-6.1-6.4-9.9-15-9.9-24.6c0-19.6,15.9-35.5,35.5-35.5
	c9.3,0,17.7,3.6,24.1,9.4c8.3-5.8,17.1-10.9,26.2-15.1c-11.9-14.5-30-23.8-50.3-23.8c-35.9,0-65,29.1-65,65
	C79.2,192.4,88.6,210.6,103.3,222.5z"/>
<circle class="st1" cx="367.8" cy="172" r="35.5"/>
<circle class="st0" cx="179.9" cy="257" r="17"/>
<path class="st0" d="M256,117c-0.1,0-0.3,0-0.4,0v166.5c0.1,0,0.3,0,0.4,0c17.3,0,31.3,9.7,31.3,21.8c0,12-14,32.8-31.3,32.8
	c-0.1,0-0.3,0-0.4,0v104.1c0.1,0,0.3,0,0.4,0c96.4,0,174.5-33.6,174.5-130S352.4,117,256,117z M332.1,274c-9.4,0-17-7.6-17-17
	c0-9.4,7.6-17,17-17s17,7.6,17,17C349.1,266.4,341.5,274,332.1,274z"/>
<path class="st0" d="M256,256c-35.3,0-64,53.8-64,89.2s28.7,47.8,64,47.8s64-12.5,64-47.8S291.3,256,256,256z M256,338
	c-0.1,0-0.3,0-0.4,0v-54.5c0.1,0,0.3,0,0.4,0c17.3,0,31.3,9.7,31.3,21.8C287.3,317.3,273.3,338,256,338z"/>
<path class="st1" d="M255.6,283.5c-17.1,0.2-30.8,9.8-30.8,21.7c0,11.9,13.8,32.4,30.8,32.7V283.5z"/>
<path class="st1" d="M256,256c-0.1,0-0.3,0-0.4,0v27.5c0.1,0,0.3,0,0.4,0c17.3,0,31.3,9.7,31.3,21.8c0,12-14,32.8-31.3,32.8
	c-0.1,0-0.3,0-0.4,0v55c0.1,0,0.3,0,0.4,0c35.3,0,64-12.5,64-47.8S291.3,256,256,256z"/>
</svg>
